<svg width="250" height="92" viewBox="0 0 250 92" fill="none" xmlns="http://www.w3.org/2000/svg">
<rect opacity="0.72" width="230" height="72" rx="4" fill="url(#paint0_linear)"/>
<circle opacity="0.8" cx="230" cy="72" r="20" fill="#FFA3D4"/>
<path d="M75.127 31H67.8174V29.5498L71.2671 25.873C71.7407 25.3555 72.0898 24.9038 72.3145 24.5181C72.5439 24.1323 72.6587 23.7661 72.6587 23.4194C72.6587 22.9458 72.5391 22.5747 72.2998 22.3062C72.0605 22.0327 71.7188 21.896 71.2744 21.896C70.7959 21.896 70.4175 22.062 70.1392 22.394C69.8657 22.7212 69.729 23.1533 69.729 23.6904H67.605C67.605 23.041 67.7588 22.4478 68.0664 21.9106C68.3789 21.3735 68.8184 20.9536 69.3848 20.6509C69.9512 20.3433 70.5933 20.1895 71.311 20.1895C72.4097 20.1895 73.2617 20.4531 73.8672 20.9805C74.4775 21.5078 74.7827 22.2524 74.7827 23.2144C74.7827 23.7417 74.646 24.2788 74.3726 24.8257C74.0991 25.3726 73.6304 26.0098 72.9663 26.7373L70.542 29.2935H75.127V31ZM83.6084 26.5908C83.6084 28.0654 83.3032 29.1934 82.6929 29.9746C82.0825 30.7559 81.189 31.1465 80.0122 31.1465C78.8501 31.1465 77.9614 30.7632 77.3462 29.9966C76.731 29.23 76.416 28.1313 76.4014 26.7007V24.7378C76.4014 23.2485 76.709 22.1182 77.3242 21.3467C77.9443 20.5752 78.8354 20.1895 79.9976 20.1895C81.1597 20.1895 82.0483 20.5728 82.6636 21.3394C83.2788 22.1011 83.5938 23.1973 83.6084 24.6279V26.5908ZM81.4917 24.4375C81.4917 23.5537 81.3696 22.9116 81.1255 22.5112C80.8862 22.106 80.5103 21.9033 79.9976 21.9033C79.4995 21.9033 79.1309 22.0962 78.8916 22.4819C78.6572 22.8628 78.5327 23.4609 78.5181 24.2764V26.8691C78.5181 27.7383 78.6353 28.3853 78.8696 28.8101C79.1089 29.23 79.4897 29.4399 80.0122 29.4399C80.5298 29.4399 80.9033 29.2373 81.1328 28.832C81.3623 28.4268 81.4819 27.8066 81.4917 26.9717V24.4375ZM92.2217 26.5908C92.2217 28.0654 91.9165 29.1934 91.3062 29.9746C90.6958 30.7559 89.8022 31.1465 88.6255 31.1465C87.4634 31.1465 86.5747 30.7632 85.9595 29.9966C85.3442 29.23 85.0293 28.1313 85.0146 26.7007V24.7378C85.0146 23.2485 85.3223 22.1182 85.9375 21.3467C86.5576 20.5752 87.4487 20.1895 88.6108 20.1895C89.7729 20.1895 90.6616 20.5728 91.2769 21.3394C91.8921 22.1011 92.207 23.1973 92.2217 24.6279V26.5908ZM90.105 24.4375C90.105 23.5537 89.9829 22.9116 89.7388 22.5112C89.4995 22.106 89.1235 21.9033 88.6108 21.9033C88.1128 21.9033 87.7441 22.0962 87.5049 22.4819C87.2705 22.8628 87.146 23.4609 87.1313 24.2764V26.8691C87.1313 27.7383 87.2485 28.3853 87.4829 28.8101C87.7222 29.23 88.103 29.4399 88.6255 29.4399C89.1431 29.4399 89.5166 29.2373 89.7461 28.832C89.9756 28.4268 90.0952 27.8066 90.105 26.9717V24.4375ZM98.0151 25.0308H100.659V26.9424H98.0151V29.9307H96.001V26.9424H93.3496V25.0308H96.001V22.167H98.0151V25.0308ZM105.339 26.979C105.339 25.7437 105.615 24.7598 106.167 24.0273C106.724 23.2949 107.483 22.9287 108.445 22.9287C109.216 22.9287 109.854 23.2168 110.356 23.793V19.75H112.48V31H110.569L110.466 30.1577C109.939 30.8169 109.26 31.1465 108.43 31.1465C107.498 31.1465 106.748 30.7803 106.182 30.0479C105.62 29.3105 105.339 28.2876 105.339 26.979ZM107.456 27.1328C107.456 27.875 107.585 28.4438 107.844 28.8394C108.103 29.2349 108.479 29.4326 108.972 29.4326C109.626 29.4326 110.088 29.1567 110.356 28.605V25.4775C110.093 24.9258 109.636 24.6499 108.987 24.6499C107.966 24.6499 107.456 25.4775 107.456 27.1328ZM116.355 31H114.231V23.0752H116.355V31ZM114.106 21.0244C114.106 20.707 114.211 20.4458 114.421 20.2407C114.636 20.0356 114.927 19.9331 115.293 19.9331C115.654 19.9331 115.942 20.0356 116.157 20.2407C116.372 20.4458 116.479 20.707 116.479 21.0244C116.479 21.3467 116.37 21.6104 116.15 21.8154C115.935 22.0205 115.649 22.123 115.293 22.123C114.937 22.123 114.648 22.0205 114.429 21.8154C114.214 21.6104 114.106 21.3467 114.106 21.0244ZM118.684 31V24.6279H117.505V23.0752H118.684V22.4014C118.684 21.5127 118.938 20.8242 119.446 20.3359C119.958 19.8428 120.674 19.5962 121.592 19.5962C121.885 19.5962 122.244 19.645 122.668 19.7427L122.646 21.3833C122.471 21.3394 122.256 21.3174 122.002 21.3174C121.206 21.3174 120.808 21.6909 120.808 22.438V23.0752H122.383V24.6279H120.808V31H118.684ZM124.06 31V24.6279H122.881V23.0752H124.06V22.4014C124.06 21.5127 124.314 20.8242 124.822 20.3359C125.334 19.8428 126.05 19.5962 126.968 19.5962C127.261 19.5962 127.62 19.645 128.044 19.7427L128.022 21.3833C127.847 21.3394 127.632 21.3174 127.378 21.3174C126.582 21.3174 126.184 21.6909 126.184 22.438V23.0752H127.759V24.6279H126.184V31H124.06ZM132.329 31.1465C131.167 31.1465 130.22 30.79 129.487 30.0771C128.76 29.3643 128.396 28.4146 128.396 27.228V27.0229C128.396 26.2271 128.55 25.5166 128.857 24.8916C129.165 24.2617 129.6 23.7783 130.161 23.4414C130.728 23.0996 131.372 22.9287 132.095 22.9287C133.179 22.9287 134.031 23.2705 134.651 23.9541C135.276 24.6377 135.588 25.6069 135.588 26.8618V27.7261H130.542C130.61 28.2437 130.815 28.6587 131.157 28.9712C131.504 29.2837 131.941 29.4399 132.468 29.4399C133.284 29.4399 133.921 29.1445 134.38 28.5537L135.42 29.7183C135.103 30.1675 134.673 30.519 134.131 30.7729C133.589 31.022 132.988 31.1465 132.329 31.1465ZM132.087 24.6426C131.667 24.6426 131.326 24.7842 131.062 25.0674C130.803 25.3506 130.637 25.7559 130.564 26.2832H133.508V26.1147C133.499 25.646 133.372 25.2847 133.127 25.0308C132.883 24.772 132.537 24.6426 132.087 24.6426ZM141.25 25.0601C140.962 25.021 140.708 25.0015 140.488 25.0015C139.688 25.0015 139.163 25.2725 138.914 25.8145V31H136.797V23.0752H138.796L138.855 24.02C139.28 23.2925 139.868 22.9287 140.62 22.9287C140.854 22.9287 141.074 22.9604 141.279 23.0239L141.25 25.0601ZM145.776 31.1465C144.614 31.1465 143.667 30.79 142.935 30.0771C142.207 29.3643 141.843 28.4146 141.843 27.228V27.0229C141.843 26.2271 141.997 25.5166 142.305 24.8916C142.612 24.2617 143.047 23.7783 143.608 23.4414C144.175 23.0996 144.819 22.9287 145.542 22.9287C146.626 22.9287 147.478 23.2705 148.098 23.9541C148.723 24.6377 149.036 25.6069 149.036 26.8618V27.7261H143.989C144.058 28.2437 144.263 28.6587 144.604 28.9712C144.951 29.2837 145.388 29.4399 145.916 29.4399C146.731 29.4399 147.368 29.1445 147.827 28.5537L148.867 29.7183C148.55 30.1675 148.12 30.519 147.578 30.7729C147.036 31.022 146.436 31.1465 145.776 31.1465ZM145.535 24.6426C145.115 24.6426 144.773 24.7842 144.509 25.0674C144.25 25.3506 144.084 25.7559 144.011 26.2832H146.956V26.1147C146.946 25.646 146.819 25.2847 146.575 25.0308C146.331 24.772 145.984 24.6426 145.535 24.6426ZM152.192 23.0752L152.258 23.9907C152.825 23.2827 153.584 22.9287 154.536 22.9287C155.376 22.9287 156.001 23.1753 156.411 23.6685C156.821 24.1616 157.031 24.8989 157.041 25.8804V31H154.924V25.9316C154.924 25.4824 154.827 25.1577 154.631 24.9575C154.436 24.7524 154.111 24.6499 153.657 24.6499C153.062 24.6499 152.615 24.9038 152.317 25.4116V31H150.2V23.0752H152.192ZM161.187 21.127V23.0752H162.542V24.6279H161.187V28.583C161.187 28.876 161.243 29.0859 161.355 29.2129C161.467 29.3398 161.682 29.4033 162 29.4033C162.234 29.4033 162.441 29.3862 162.622 29.3521V30.9561C162.207 31.083 161.78 31.1465 161.34 31.1465C159.856 31.1465 159.099 30.397 159.07 28.8979V24.6279H157.913V23.0752H159.07V21.127H161.187ZM87.373 49.4399C87.7637 49.4399 88.0811 49.3325 88.3252 49.1177C88.5693 48.9028 88.6963 48.6172 88.7061 48.2607H90.6909C90.686 48.7979 90.5396 49.291 90.2515 49.7402C89.9634 50.1846 89.5679 50.5312 89.0649 50.7803C88.5669 51.0244 88.0151 51.1465 87.4097 51.1465C86.2769 51.1465 85.3833 50.7876 84.729 50.0698C84.0747 49.3472 83.7476 48.3511 83.7476 47.0815V46.9424C83.7476 45.7217 84.0723 44.7476 84.7217 44.02C85.3711 43.2925 86.2622 42.9287 87.395 42.9287C88.3862 42.9287 89.1797 43.2119 89.7754 43.7783C90.376 44.3398 90.6812 45.0894 90.6909 46.0269H88.7061C88.6963 45.6167 88.5693 45.2847 88.3252 45.0308C88.0811 44.772 87.7588 44.6426 87.3584 44.6426C86.8652 44.6426 86.4917 44.8232 86.2378 45.1846C85.9888 45.541 85.8643 46.1221 85.8643 46.9277V47.1475C85.8643 47.9629 85.9888 48.5488 86.2378 48.9053C86.4868 49.2617 86.8652 49.4399 87.373 49.4399ZM91.5698 46.9644C91.5698 46.1782 91.7212 45.4775 92.0239 44.8623C92.3267 44.2471 92.7612 43.771 93.3276 43.4341C93.8989 43.0972 94.5605 42.9287 95.3125 42.9287C96.3818 42.9287 97.2534 43.2559 97.9272 43.9102C98.606 44.5645 98.9844 45.4531 99.0625 46.5762L99.0771 47.1182C99.0771 48.334 98.7378 49.3105 98.0591 50.0479C97.3804 50.7803 96.4697 51.1465 95.3271 51.1465C94.1846 51.1465 93.2715 50.7803 92.5879 50.0479C91.9092 49.3154 91.5698 48.3193 91.5698 47.0596V46.9644ZM93.6865 47.1182C93.6865 47.8701 93.8281 48.4463 94.1113 48.8467C94.3945 49.2422 94.7998 49.4399 95.3271 49.4399C95.8398 49.4399 96.2402 49.2446 96.5283 48.854C96.8164 48.4585 96.9604 47.8286 96.9604 46.9644C96.9604 46.2271 96.8164 45.6558 96.5283 45.2505C96.2402 44.8452 95.835 44.6426 95.3125 44.6426C94.7949 44.6426 94.3945 44.8452 94.1113 45.2505C93.8281 45.6509 93.6865 46.2734 93.6865 47.1182ZM105.127 50.1943C104.604 50.8291 103.882 51.1465 102.959 51.1465C102.109 51.1465 101.46 50.9023 101.011 50.4141C100.566 49.9258 100.339 49.2104 100.33 48.2681V43.0752H102.446V48.1948C102.446 49.02 102.822 49.4326 103.574 49.4326C104.292 49.4326 104.785 49.1836 105.054 48.6855V43.0752H107.178V51H105.186L105.127 50.1943ZM110.723 43.0752L110.789 43.9907C111.355 43.2827 112.114 42.9287 113.066 42.9287C113.906 42.9287 114.531 43.1753 114.941 43.6685C115.352 44.1616 115.562 44.8989 115.571 45.8804V51H113.455V45.9316C113.455 45.4824 113.357 45.1577 113.162 44.9575C112.966 44.7524 112.642 44.6499 112.188 44.6499C111.592 44.6499 111.145 44.9038 110.847 45.4116V51H108.73V43.0752H110.723ZM119.717 41.127V43.0752H121.072V44.6279H119.717V48.583C119.717 48.876 119.773 49.0859 119.885 49.2129C119.998 49.3398 120.212 49.4033 120.53 49.4033C120.764 49.4033 120.972 49.3862 121.152 49.3521V50.9561C120.737 51.083 120.31 51.1465 119.871 51.1465C118.386 51.1465 117.629 50.397 117.6 48.8979V44.6279H116.443V43.0752H117.6V41.127H119.717ZM126.704 45.0601C126.416 45.021 126.162 45.0015 125.942 45.0015C125.142 45.0015 124.617 45.2725 124.368 45.8145V51H122.251V43.0752H124.25L124.309 44.02C124.734 43.2925 125.322 42.9287 126.074 42.9287C126.309 42.9287 126.528 42.9604 126.733 43.0239L126.704 45.0601ZM129.963 51H127.839V43.0752H129.963V51ZM127.715 41.0244C127.715 40.707 127.82 40.4458 128.03 40.2407C128.245 40.0356 128.535 39.9331 128.901 39.9331C129.263 39.9331 129.551 40.0356 129.766 40.2407C129.98 40.4458 130.088 40.707 130.088 41.0244C130.088 41.3467 129.978 41.6104 129.758 41.8154C129.543 42.0205 129.258 42.123 128.901 42.123C128.545 42.123 128.257 42.0205 128.037 41.8154C127.822 41.6104 127.715 41.3467 127.715 41.0244ZM135.361 51.1465C134.199 51.1465 133.252 50.79 132.52 50.0771C131.792 49.3643 131.428 48.4146 131.428 47.228V47.0229C131.428 46.2271 131.582 45.5166 131.89 44.8916C132.197 44.2617 132.632 43.7783 133.193 43.4414C133.76 43.0996 134.404 42.9287 135.127 42.9287C136.211 42.9287 137.063 43.2705 137.683 43.9541C138.308 44.6377 138.621 45.6069 138.621 46.8618V47.7261H133.574C133.643 48.2437 133.848 48.6587 134.189 48.9712C134.536 49.2837 134.973 49.4399 135.5 49.4399C136.316 49.4399 136.953 49.1445 137.412 48.5537L138.452 49.7183C138.135 50.1675 137.705 50.519 137.163 50.7729C136.621 51.022 136.021 51.1465 135.361 51.1465ZM135.12 44.6426C134.7 44.6426 134.358 44.7842 134.094 45.0674C133.835 45.3506 133.669 45.7559 133.596 46.2832H136.541V46.1147C136.531 45.646 136.404 45.2847 136.16 45.0308C135.916 44.772 135.569 44.6426 135.12 44.6426ZM144.121 48.8101C144.121 48.5513 143.992 48.3486 143.733 48.2021C143.479 48.0508 143.069 47.9165 142.502 47.7993C140.618 47.4038 139.675 46.603 139.675 45.397C139.675 44.6938 139.966 44.1079 140.547 43.6392C141.133 43.1655 141.897 42.9287 142.839 42.9287C143.845 42.9287 144.648 43.1655 145.249 43.6392C145.854 44.1128 146.157 44.728 146.157 45.4849H144.041C144.041 45.1821 143.943 44.9331 143.748 44.7378C143.552 44.5376 143.247 44.4375 142.832 44.4375C142.476 44.4375 142.2 44.5181 142.004 44.6792C141.809 44.8403 141.711 45.0454 141.711 45.2944C141.711 45.5288 141.821 45.7192 142.041 45.8657C142.266 46.0073 142.642 46.1318 143.169 46.2393C143.696 46.3418 144.141 46.459 144.502 46.5908C145.62 47.001 146.179 47.7114 146.179 48.7222C146.179 49.4448 145.869 50.0308 145.249 50.48C144.629 50.9243 143.828 51.1465 142.847 51.1465C142.183 51.1465 141.592 51.0293 141.074 50.7949C140.562 50.5557 140.159 50.231 139.866 49.8208C139.573 49.4058 139.426 48.959 139.426 48.4805H141.433C141.453 48.8564 141.592 49.1445 141.851 49.3447C142.109 49.5449 142.456 49.645 142.891 49.645C143.296 49.645 143.601 49.5693 143.806 49.418C144.016 49.2617 144.121 49.0591 144.121 48.8101Z" fill="white"/>
<path d="M229.796 60.7383C225.484 60.7383 221.976 64.2468 221.976 68.5592C221.976 73.9794 229.804 83.2383 229.804 83.2383C229.804 83.2383 237.617 73.7129 237.617 68.5592C237.617 64.2468 234.109 60.7383 229.796 60.7383ZM232.156 70.8491C231.506 71.4997 230.651 71.825 229.796 71.825C228.942 71.825 228.087 71.4997 227.437 70.8491C226.136 69.5481 226.136 67.431 227.437 66.1298C228.067 65.4995 228.905 65.1523 229.796 65.1523C230.688 65.1523 231.526 65.4996 232.156 66.1298C233.457 67.431 233.457 69.5481 232.156 70.8491Z" fill="white"/>
<defs>
<linearGradient id="paint0_linear" x1="51.75" y1="-18" x2="217.648" y2="128.964" gradientUnits="userSpaceOnUse">
<stop stop-color="#0085FF"/>
<stop offset="1" stop-color="#453C9E"/>
</linearGradient>
</defs>
</svg>
