<svg width="1713" height="1080" viewBox="0 0 1713 1080" fill="none" xmlns="http://www.w3.org/2000/svg">
<path opacity="0.1" d="M1455.76 507.141C1455.76 832.78 1191.5 1096.76 865.5 1096.76C539.506 1096.76 275.236 832.78 275.236 507.141C275.236 181.501 539.506 -82.483 865.5 -82.483C1191.5 -82.483 1455.76 181.501 1455.76 507.141Z" stroke="white" stroke-width="2"/>
<path opacity="0.1" d="M1712 507.141C1712 975.004 1333.01 1354.28 865.5 1354.28C397.992 1354.28 19 975.004 19 507.141C19 39.277 397.992 -340 865.5 -340C1333.01 -340 1712 39.277 1712 507.141Z" stroke="white" stroke-width="2"/>
<circle opacity="0.2" cx="275.517" cy="548.138" r="35.873" fill="#4EEAFF"/>
<circle opacity="0.4" cx="275.517" cy="548.138" r="22.4206" fill="#4EEAFF"/>
<circle cx="275.517" cy="548.138" r="6.72619" fill="#4EEAFF"/>
<circle opacity="0.15" cx="1435.44" cy="683.435" r="38.4354" fill="white"/>
<circle opacity="0.4" cx="1435.44" cy="683.436" r="17.9365" fill="white"/>
<circle cx="1435.43" cy="683.435" r="5.01331" fill="white"/>
<circle opacity="0.1" cx="126.9" cy="920.961" r="47.4036" fill="white"/>
<circle opacity="0.15" cx="126.9" cy="920.961" r="29.6273" fill="white"/>
<circle cx="126.9" cy="920.962" r="6.18308" fill="white"/>
<circle opacity="0.2" cx="56.9728" cy="283.973" r="56.9728" fill="#4EEAFF"/>
<circle opacity="0.5" cx="56.9727" cy="283.973" r="35.608" fill="#4EEAFF"/>
<circle cx="56.9727" cy="283.973" r="7.43123" fill="#4FEAFF"/>
</svg>
